<svg width="144" height="128" viewBox="0 0 144 128" fill="none" xmlns="http://www.w3.org/2000/svg">
<path d="M92.6771 40.1064C93.3546 38.5174 93.2937 38.6387 93.5726 37.3045C93.8516 35.9704 93.4106 34.5516 93.4106 34.5516C88.2154 19.9977 78.637 12.6029 65.0333 9.64914C61.5729 8.9065 57.9746 9.12748 54.6314 10.288C38.376 15.9067 31.403 26.6999 29.7606 39.2137C29.7606 39.2137 29.6531 40.4396 29.7323 41.2186C29.7985 41.8699 30.0617 42.8624 30.0617 42.8624" stroke="black" stroke-linejoin="round"/>
<path fill-rule="evenodd" clip-rule="evenodd" d="M35.6671 8.40639C40.1393 5.18392 47.7053 7.60456 51.0241 12.1423C44.7014 14.6786 39.109 18.7435 34.7491 23.9719C31.4412 19.4478 31.1662 11.6629 35.618 8.40084L35.6671 8.40639Z" fill="black"/>
<path fill-rule="evenodd" clip-rule="evenodd" d="M86.4562 6.97494C81.8318 3.85534 74.4041 6.5823 71.2387 11.2323C77.6309 13.551 83.1347 17.9889 87.649 23.0679C90.8102 18.4547 91.0452 10.0781 86.4562 6.97494Z" fill="black"/>
<path d="M29.9788 42.5694C32.1706 49.2538 40.6631 57.4454 51.9636 59.4182C53.4727 59.7376 54.901 60.3598 56.1619 61.247C58.0712 62.5252 60.2754 63.296 62.5662 63.4867C64.8155 63.0045 66.9045 61.9575 68.6358 60.4447C69.7935 59.4508 71.1165 58.6667 72.5448 58.1278M86.8976 50.0919C83.5352 53.6589 79.251 56.2289 74.518 57.5182" stroke="black" stroke-linejoin="round"/>
<path fill-rule="evenodd" clip-rule="evenodd" d="M62.46 45.095C65.1793 44.9301 67.0957 43.3946 67.208 45.2587C67.1286 46.4619 66.6248 47.5981 65.786 48.4656C64.9473 49.3331 63.8277 49.8758 62.6262 49.9972C61.4057 50.0307 60.2119 49.6367 59.2518 48.8837C58.2916 48.1307 57.6254 47.066 57.3688 45.8742C57.2551 44.0223 59.7408 45.2599 62.4355 45.0922L62.46 45.095Z" fill="black"/>
<path fill-rule="evenodd" clip-rule="evenodd" d="M55.9276 40.0332C56.4817 39.3257 56.8889 38.5149 57.1254 37.6482C57.3619 36.7816 57.4228 35.8766 57.3047 34.9862C57.1866 34.0957 56.8918 33.2378 56.4376 32.4625C55.9833 31.6872 55.3788 31.0101 54.6593 30.471C53.8548 29.8645 52.8791 29.5271 51.8713 29.5069C50.8634 29.4867 49.875 29.7848 49.0468 30.3587C46.3129 32.3233 43.8331 34.6183 41.664 37.1913C41.0744 37.889 40.634 38.6998 40.3699 39.5738C40.1057 40.4478 40.0235 41.3665 40.1282 42.2734C40.2329 43.1803 40.5224 44.0562 40.9787 44.8473C41.4351 45.6383 42.0487 46.3278 42.7818 46.8733C43.5745 47.4558 44.4831 47.862 45.4462 48.0644C46.4094 48.2669 47.4048 48.2608 48.3654 48.0467C49.3261 47.8327 50.2296 47.4155 51.0151 46.8234C51.8007 46.2312 52.45 45.4779 52.9193 44.614C53.8018 42.9948 54.8094 41.4468 55.9331 39.9842L55.9276 40.0332Z" fill="black"/>
<path fill-rule="evenodd" clip-rule="evenodd" d="M67.9478 39.2797C67.3083 38.6488 66.8013 37.8967 66.4568 37.0675C66.1122 36.2384 65.937 35.3488 65.9414 34.4512C65.9458 33.5535 66.1297 32.6657 66.4823 31.84C66.8349 31.0142 67.3491 30.2671 67.9948 29.6424C68.7192 28.9436 69.6454 28.4902 70.6423 28.3464C71.6392 28.2025 72.6561 28.3756 73.549 28.841C76.5063 30.459 79.2502 32.4387 81.7171 34.7344C82.3902 35.3515 82.9301 36.0992 83.3037 36.9319C83.6773 37.7646 83.8768 38.6647 83.8899 39.577C83.903 40.4893 83.7295 41.3947 83.3799 42.2378C83.0303 43.0808 82.5121 43.8437 81.857 44.4798C81.1426 45.1578 80.2911 45.6751 79.3598 45.9969C78.4284 46.3187 77.4388 46.4376 76.4576 46.3456C75.4764 46.2535 74.5263 45.9527 73.6712 45.4633C72.8162 44.9739 72.0761 44.3073 71.5007 43.5084C70.4408 42.0212 69.2636 40.6208 67.9805 39.3207L67.9478 39.2797Z" fill="black"/>
<path d="M63.095 50.9084C63.7012 52.2904 63.7987 53.8419 63.3701 55.2886M69.0742 54.2662C64.9755 59.7908 60.5241 57.7909 58.0426 54.9045" stroke="black" stroke-linejoin="round"/>
<path fill-rule="evenodd" clip-rule="evenodd" d="M71.3719 32.7825C71.6556 32.7622 71.939 32.8265 72.1859 32.9673C72.4329 33.1081 72.6324 33.319 72.7591 33.5733C72.8858 33.8275 72.9339 34.1137 72.8973 34.3953C72.8607 34.6769 72.7411 34.9413 72.5537 35.1549C72.3663 35.3685 72.1195 35.5217 71.8448 35.5949C71.57 35.6682 71.2796 35.6582 71.0105 35.5663C70.7414 35.4744 70.5057 35.3047 70.3334 35.0788C70.1611 34.8529 70.06 34.5809 70.0428 34.2974C70.0299 34.1107 70.0541 33.9233 70.114 33.7459C70.1739 33.5686 70.2683 33.4048 70.3919 33.264C70.5154 33.1232 70.6656 33.0082 70.8338 32.9256C71.002 32.8429 71.1849 32.7943 71.3719 32.7825Z" fill="white"/>
<path fill-rule="evenodd" clip-rule="evenodd" d="M50.8415 34.0663C51.1252 34.046 51.4085 34.1103 51.6555 34.2511C51.9025 34.3919 52.102 34.6028 52.2287 34.8571C52.3553 35.1114 52.4034 35.3975 52.3668 35.6791C52.3303 35.9607 52.2107 36.2251 52.0233 36.4387C51.8359 36.6523 51.5891 36.8055 51.3143 36.8787C51.0395 36.952 50.7492 36.942 50.4801 36.8501C50.2109 36.7582 49.9753 36.5886 49.803 36.3626C49.6307 36.1367 49.5295 35.8647 49.5124 35.5812C49.4978 35.3942 49.5208 35.2061 49.5801 35.028C49.6393 34.8499 49.7336 34.6855 49.8575 34.5444C49.9813 34.4032 50.1322 34.2882 50.3011 34.2061C50.4701 34.124 50.6539 34.0765 50.8415 34.0663Z" fill="white"/>
<path d="M82.1553 8.68887C80.9082 8.76208 79.6936 9.11467 78.6016 9.7205C77.5096 10.3263 76.5682 11.1699 75.8472 12.1885" stroke="white" stroke-linejoin="round"/>
<path d="M5.10644 36.6154C4.49512 34.0814 4.04515 31.8835 4.73096 29.3685C5.54679 26.3767 6.77865 24.0831 9.79333 23.6626L12.3995 23.2795C13.7563 23.5428 14.8405 24.5325 15.3611 25.7189C17.7015 30.9006 17.1075 35.5276 13.2985 37.5932L13.8145 38.4655C18.0276 36.0485 18.8988 31.009 16.3614 25.2647C16.0378 24.641 15.5873 23.9562 15.1086 23.4919C14.5032 22.9665 13.8695 22.6614 13.2357 22.3564L14.0119 19.4547C14.3412 18.2875 15.5236 17.3328 16.8116 17.2152C18.2398 17.0847 19.239 17.8314 19.8908 19.0873C20.6457 21.2443 21.8555 24.4001 21.8555 24.4001C23.4784 27.8327 23.5803 30.5332 23.5171 34.8698C26.6836 40.6051 28.302 41.5519 29.7961 42.4035C29.8607 44.696 32.514 48.1084 32.514 48.1084C32.514 48.1084 33.8676 49.877 34.8713 50.7991C38.1604 53.8209 39.8862 54.5242 43.1861 56.4246C38.2078 64.567 34.8713 66.5593 34.5135 80.4145C34.5135 80.4145 28.549 73.1045 24.4611 68.407C20.3732 63.7095 8.64759 43.8208 8.64759 43.8208C8.64759 43.8208 5.84417 39.6735 5.10644 36.6154Z" fill="black"/>
<path fill-rule="evenodd" clip-rule="evenodd" d="M16.794 19.4054C16.0709 19.4473 15.5164 20.2721 15.4361 21.2472C15.4078 21.4676 15.3795 21.6879 15.4451 21.8755C15.5108 22.063 15.5764 22.2506 15.736 22.4054C15.8956 22.5602 16.0551 22.715 16.1819 22.776C16.3414 22.9308 16.5621 22.959 16.7828 22.9872C17.5059 22.9454 18.0604 22.1206 18.1407 21.1454C18.2866 20.3579 17.6767 19.5184 16.794 19.4054Z" fill="white"/>
<path d="M109.121 91.1222C106.298 89.5856 103.318 88.5304 100.07 88.0437C99.1806 87.9378 94.6433 86.4972 94.7349 87.4085C95.6345 96.3619 85.5472 111.483 77.607 112.753C90.0225 112.831 93.2926 113.749 97.1574 114.109C110.751 115.227 122.238 110.492 122.854 103.662C123.356 98.6196 117.725 93.7473 109.121 91.1222Z" fill="black"/>
<path d="M51.7385 111.76C64.6728 117.224 80.0945 114.74 86.0641 108.283" stroke="black"/>
<path d="M95.1373 91.8565C94.986 87.0223 95.4987 79.574 88.0148 65.815" stroke="black"/>
<path d="M85.2351 44.8537L85.2237 45.0188C85.2391 45.9359 86.2738 50.7809 104.038 62.2092C123.965 75.0289 129.174 72.6951 129.174 72.6951L82.3577 110.819C81.6859 111.366 80.6907 110.822 80.7514 109.941L85.2237 45.0188C85.2219 44.9071 85.2351 44.8537 85.2351 44.8537Z" fill="#FF59A3" stroke="#FF59A3" stroke-linejoin="round"/>
<path d="M98.6809 47.0512C91.6631 43.7285 86.3917 42.447 85.3767 44.1504C83.8485 46.7148 92.5468 55.0737 104.805 62.8205C117.063 70.5672 128.239 74.7683 129.767 72.2038C130.959 70.2033 125.928 64.6764 117.838 58.6648" stroke="black"/>
<path d="M112.257 19.8703L115.678 16.3401L114.949 21.1983" stroke="black" stroke-linejoin="round"/>
<path d="M115.498 21.9641L119.034 25.3803L114.168 24.652" stroke="black" stroke-linejoin="round"/>
<path d="M113.081 25.4131L109.66 28.9433L110.389 24.0851" stroke="black" stroke-linejoin="round"/>
<path d="M109.884 23.0914L106.348 19.6752L111.214 20.4035" stroke="black" stroke-linejoin="round"/>
<path d="M107.688 48.8333L111.546 44.8532L110.723 50.3305" stroke="black" stroke-linejoin="round"/>
<path d="M111.342 51.194L115.328 55.0456L109.843 54.2244" stroke="black" stroke-linejoin="round"/>
<path d="M108.617 55.0825L104.76 59.0626L105.582 53.5853" stroke="black" stroke-linejoin="round"/>
<path d="M105.013 52.4649L101.027 48.6133L106.512 49.4344" stroke="black" stroke-linejoin="round"/>
<path d="M129.869 39.9137L132.328 37.3757L131.804 40.8684" stroke="black" stroke-linejoin="round"/>
<path d="M132.199 41.419L134.741 43.8751L131.243 43.3515" stroke="black" stroke-linejoin="round"/>
<path d="M130.461 43.8986L128.001 46.4367L128.526 42.9439" stroke="black" stroke-linejoin="round"/>
<path d="M128.163 42.2295L125.621 39.7734L129.119 40.297" stroke="black" stroke-linejoin="round"/>
<path d="M126.984 25.4338L115.024 45.5134" stroke="black" stroke-linejoin="round"/>
<path d="M139.011 48.7375L122.391 57.6049" stroke="black" stroke-linejoin="round"/>
<path d="M100.94 26.1527L100.644 44.0053" stroke="black" stroke-linejoin="round"/>
<path d="M124.225 103.925C128.329 96.4104 126.86 87.7317 121.041 84.4377C115.222 81.1437 107.097 84.5783 102.993 92.0934C98.889 99.6084 100.358 108.287 106.177 111.581C111.996 114.875 120.121 111.441 124.225 103.925Z" fill="black"/>
<path d="M117.742 105.355C120.299 101.557 119.79 96.5943 116.457 94.2967C113.124 91.999 108.356 93.3321 105.798 97.1295C103.241 100.927 103.75 105.89 107.083 108.187C110.416 110.485 115.097 109.042 117.742 105.355Z" fill="white"/>
<path d="M116.11 89.6532C116.263 88.3708 115.614 87.093 114.725 86.9871C113.836 86.8813 112.817 87.8605 112.664 89.1429C112.511 90.4252 113.16 91.703 114.049 91.8089C114.938 91.9148 115.957 90.9355 116.11 89.6532Z" fill="white"/>
<path d="M121.393 89.882C120.191 89.0386 118.963 90.0929 118.497 90.6378C117.897 91.4667 117.436 92.8125 118.44 93.6323C119.468 94.2549 120.527 93.7807 121.336 92.8766C121.924 92.1463 122.409 90.6033 121.393 89.882Z" fill="white"/>
<path d="M123.043 97.882C123.264 97.7082 123.497 97.4358 123.631 97.1517C123.765 96.8675 123.801 96.5716 123.737 96.2639C123.674 95.9562 123.5 95.7354 123.326 95.5146C123.152 95.2937 122.867 95.1598 122.582 95.0259C122.286 94.9906 121.99 94.9553 121.681 95.0187C121.373 95.082 121.152 95.2558 120.919 95.5282C120.686 95.8006 120.651 96.0965 120.616 96.3925C120.58 96.6884 120.644 96.9961 120.806 97.3155C121.067 97.6468 121.427 97.9897 121.822 98.0368C122.316 98.0956 122.723 98.044 123.043 97.882Z" fill="white"/>
<path d="M34.8244 86.4277C34.327 81.4606 32.8346 70.533 42.9348 56.406" stroke="black"/>
<path d="M18.5935 103.159C16.2749 99.0814 15.7654 94.1185 17.1964 89.6867C21.9838 87.3554 27.742 88.6412 30.9498 92.8249C34.1928 96.7126 36.0103 101.631 36.2116 106.657C36.508 106.693 36.9149 106.641 37.2113 106.676C37.127 104.865 36.8451 103.031 36.3655 101.173C35.4817 97.6664 33.8593 94.4719 31.4745 91.7868C28.1326 87.8874 22.6944 86.4395 17.7801 88.1555C19.2085 85.4242 21.6647 83.3155 24.5841 82.3625C32.5166 79.7053 36.6888 83.1315 39.3017 94.8718C41.2916 103.813 48.2562 110.27 56.2158 113.734C46.5267 113.481 44.3304 113.734 37.671 113.734C29.3522 113.734 23.16 111.907 18.5935 103.159Z" fill="black"/>
<path d="M12.4013 108.024C9.11191 100.329 11.4094 91.9991 17.5282 89.4261C23.647 86.853 31.0631 91.0375 34.3525 98.7325C37.6419 106.427 35.3444 114.758 29.2256 117.331C23.1068 119.904 15.6907 115.719 12.4013 108.024Z" fill="black"/>
<path d="M18.5828 109.961C16.4618 105.907 17.5212 101.231 20.9536 99.3382C24.386 97.4458 28.888 99.1824 31.009 103.237C33.13 107.291 32.0706 111.967 28.6382 113.859C25.2058 115.752 20.7156 113.917 18.5828 109.961Z" fill="white"/>
<path d="M21.7919 94.8359C21.7239 93.7273 22.371 92.5038 23.4813 92.4359C24.3822 92.4431 25.1654 93.4367 25.2098 94.7426C25.2543 96.0485 24.5201 97.1616 23.5204 97.1427C22.6077 97.2341 21.8364 96.1418 21.7919 94.8359Z" fill="white"/>
<path d="M16.3646 97.4913C15.7673 96.6198 15.6359 95.2035 16.6193 94.5203C17.6026 93.837 18.7927 94.779 19.2913 95.6387C19.7898 96.4985 20.1188 97.9383 19.0366 98.6098C18.0768 99.0958 17.049 98.4732 16.3646 97.4913Z" fill="white"/>
<path d="M13.6846 101.474C13.5341 101.056 13.6284 100.267 14.1695 99.9312C14.6118 99.5836 15.3269 99.4687 15.7973 99.7248C16.0819 99.8587 16.2559 100.08 16.43 100.3C16.604 100.521 16.6674 100.829 16.6321 101.125C16.5968 101.421 16.5614 101.717 16.3285 101.989C16.2061 102.175 15.9968 102.25 15.8744 102.435C15.665 102.51 15.4557 102.585 15.2463 102.661C14.6535 102.59 13.7997 102.188 13.6846 101.474Z" fill="white"/>
</svg>
