<svg width="144" height="128" viewBox="0 0 144 128" fill="none" xmlns="http://www.w3.org/2000/svg">
<rect width="144" height="128" fill="white"/>
<path d="M109.563 69.9932C113.926 78.0783 119.128 85.9683 109.563 88.3017C95.9893 90.0754 100.059 82.5903 96.7149 74.4341C94.3701 68.7157 92.6479 65.5459 90.1559 62.5561C90.1559 62.5561 93.1064 61.4094 94.2841 60.7739C96.9413 59.3401 97.4536 58.5123 97.4536 58.5123C101.099 59.5495 105.772 64.2317 109.563 69.9932Z" fill="black"/>
<path d="M49.3426 35.0032C54.1366 25.1444 62.8423 18.1676 77.7604 18.0039C80.8299 17.9662 83.8507 18.7726 86.493 20.3351C96.8711 26.5057 102.716 35.2295 102.985 48.6475" stroke="black" stroke-width="0.865397" stroke-linejoin="round"/>
<path fill-rule="evenodd" clip-rule="evenodd" d="M62.6776 11.2439C67.2431 9.81746 72.8012 13.8903 74.2828 18.5406C68.3838 18.8933 62.6649 20.706 57.6399 23.8159C56.1635 19.1799 58.0791 12.6904 62.6387 11.2258L62.6776 11.2439Z" fill="black"/>
<path fill-rule="evenodd" clip-rule="evenodd" d="M104.851 24.017C101.906 20.1764 95.0451 20.3826 91.1618 23.3442C95.7823 27.0105 99.0888 32.1788 101.405 37.6034C105.275 34.6711 107.773 27.8343 104.851 24.017Z" fill="black"/>
<path d="M48.5986 37.8278C48.5626 43.9371 53.295 53.019 62.0483 57.7488C63.2018 58.4265 64.2056 59.3315 64.9988 60.4089C66.2177 61.9864 67.8189 63.227 69.6509 64.0134C71.6339 64.234 73.6404 63.9453 75.4808 63.1745C76.7067 62.6737 78.0107 62.3911 79.3339 62.3395M102.361 50.9601C100.217 54.6353 97.0993 57.6466 93.3519 59.6617C89.6044 61.6768 85.3731 62.6173 81.1248 62.3794" stroke="black" stroke-width="0.865397" stroke-linejoin="round"/>
<path fill-rule="evenodd" clip-rule="evenodd" d="M74.6236 48.8316C76.9059 49.4427 78.9048 48.7041 78.4843 50.2708C78.088 51.2403 77.361 52.038 76.4323 52.5223C75.5036 53.0066 74.4334 53.1461 73.4115 52.9161C72.3983 52.6084 71.5247 51.9559 70.942 51.0717C70.3593 50.1875 70.1042 49.1274 70.221 48.0749C70.637 46.5179 72.3413 48.2205 74.6041 48.8226L74.6236 48.8316Z" fill="black"/>
<path fill-rule="evenodd" clip-rule="evenodd" d="M70.6428 42.8668C71.2933 42.436 71.8514 41.8799 72.2844 41.2308C72.7173 40.5818 73.0165 39.8529 73.1643 39.0869C73.3122 38.3208 73.3057 37.5329 73.1453 36.7694C72.985 36.0059 72.6739 35.282 72.2304 34.6401C71.7355 33.9194 71.0257 33.3734 70.2021 33.0799C69.3786 32.7865 68.4834 32.7605 67.6443 33.0058C64.8548 33.8734 62.1834 35.083 59.6912 36.607C59.0142 37.0199 58.4288 37.5669 57.9711 38.2144C57.5133 38.8619 57.1929 39.5962 57.0295 40.3721C56.8661 41.1481 56.8632 41.9493 57.021 42.7264C57.1788 43.5035 57.4939 44.2401 57.9469 44.8909C58.4387 45.5886 59.0743 46.1729 59.811 46.6042C60.5476 47.0356 61.3681 47.3041 62.2172 47.3916C63.0664 47.4791 63.9244 47.3836 64.7335 47.1115C65.5427 46.8395 66.2841 46.3972 66.9078 45.8144C68.0792 44.7228 69.3341 43.7242 70.6609 42.8279L70.6428 42.8668Z" fill="black"/>
<path fill-rule="evenodd" clip-rule="evenodd" d="M80.738 45.548C80.3855 44.8525 80.1754 44.0936 80.1201 43.3158C80.0648 42.538 80.1654 41.7571 80.416 41.0187C80.6665 40.2803 81.0621 39.5994 81.5793 39.0159C82.0966 38.4324 82.7251 37.9581 83.4282 37.6209C84.2163 37.2441 85.103 37.125 85.9627 37.2804C86.8223 37.4357 87.6113 37.8577 88.2177 38.4864C90.2053 40.6319 91.9178 43.0167 93.3155 45.5857C93.6995 46.2791 93.9379 47.0435 94.0161 47.8321C94.0944 48.6208 94.0108 49.4172 93.7706 50.1724C93.5303 50.9277 93.1385 51.6259 92.619 52.2245C92.0995 52.823 91.4633 53.3092 90.7493 53.6533C89.9752 54.0156 89.1324 54.2079 88.2777 54.2172C87.423 54.2265 86.5762 54.0526 85.7943 53.7072C85.0125 53.3619 84.3137 52.853 83.7449 52.2149C83.1762 51.5768 82.7508 50.8243 82.4973 50.008C82.0345 48.4915 81.4515 47.0144 80.7536 45.5907L80.738 45.548Z" fill="black"/>
<path d="M73.5466 53.7956C73.6651 55.1008 73.3184 56.4058 72.5678 57.48M75.6184 58.7793C73.0222 59.9381 70.9894 58.9936 69.3607 56.7466" stroke="black" stroke-width="0.865397" stroke-linejoin="round"/>
<path fill-rule="evenodd" clip-rule="evenodd" d="M85.3424 41.1358C85.5813 41.1969 85.7967 41.3277 85.9612 41.5116C86.1256 41.6954 86.2317 41.924 86.2659 42.1683C86.3002 42.4126 86.261 42.6615 86.1535 42.8835C86.0459 43.1055 85.8748 43.2905 85.6618 43.415C85.4489 43.5395 85.2038 43.5979 84.9576 43.5827C84.7114 43.5676 84.4752 43.4796 84.2791 43.33C84.083 43.1804 83.9359 42.9758 83.8563 42.7423C83.7767 42.5089 83.7683 42.257 83.8322 42.0187C83.873 41.8614 83.9445 41.7136 84.0425 41.5839C84.1406 41.4542 84.2633 41.3453 84.4037 41.2632C84.544 41.1811 84.6992 41.1276 84.8603 41.1058C85.0214 41.0839 85.1852 41.0941 85.3424 41.1358Z" fill="white"/>
<path fill-rule="evenodd" clip-rule="evenodd" d="M68.1005 36.5535C68.3395 36.6147 68.5549 36.7455 68.7193 36.9294C68.8837 37.1132 68.9898 37.3418 69.0241 37.5861C69.0583 37.8303 69.0191 38.0793 68.9116 38.3013C68.804 38.5232 68.6329 38.7082 68.42 38.8327C68.207 38.9572 67.9619 39.0156 67.7157 39.0005C67.4695 38.9854 67.2333 38.8974 67.0373 38.7478C66.8412 38.5981 66.694 38.3936 66.6144 38.1601C66.5348 37.9266 66.5265 37.6747 66.5904 37.4365C66.6298 37.2784 66.7005 37.1297 66.7982 36.9993C66.896 36.8688 67.0188 36.7593 67.1595 36.677C67.3002 36.5947 67.4559 36.5414 67.6175 36.5202C67.7791 36.499 67.9434 36.5103 68.1005 36.5535Z" fill="white"/>
<path d="M100.842 24.2475C99.7958 23.9652 98.6997 23.9221 97.6347 24.1212C96.5697 24.3204 95.5632 24.7567 94.6898 25.3979" stroke="white" stroke-width="0.865397" stroke-linejoin="round"/>
<path d="M43.3134 84.1878C43.4974 78.0982 45.4824 67.1298 57.0497 54.3836" stroke="black" stroke-width="0.865397"/>
<path d="M34.7442 102.361C32.2999 98.7446 31.4677 94.1756 32.4723 89.9591C36.7394 87.4487 42.1684 88.225 45.4443 91.8753C48.7315 95.2484 50.7724 99.6815 51.3236 104.332C51.6008 104.343 51.9741 104.266 52.2513 104.277C52.0418 102.602 51.6475 100.92 51.0684 99.2308C49.995 96.0403 48.2599 93.1931 45.8553 90.8739C42.4757 87.497 37.3314 86.5472 32.9021 88.4957C34.0275 85.8575 36.1506 83.7226 38.7867 82.6267C45.9445 79.5861 47.4121 84.4586 51.8978 97.0433C52.7278 99.3909 54.2147 106.303 67.3055 107.576C58.3088 108.043 55.4295 110.33 53.1893 110.794C40.8646 113.439 39.6102 110.148 34.7442 102.361Z" fill="black"/>
<path d="M28.675 106.342C25.5675 99.2009 27.6485 91.4314 33.3188 88.9964C38.9891 86.5614 45.9092 90.4083 49.0167 97.5499C52.1242 104.691 50.0433 112.461 44.3729 114.896C38.7026 117.331 31.7825 113.484 28.675 106.342Z" fill="black"/>
<path d="M34.4332 108.105C32.4354 104.344 33.3895 99.9847 36.5674 98.2008C39.7452 96.4169 43.9409 98.004 45.9387 101.764C47.9365 105.524 46.9823 109.884 43.8045 111.668C40.6266 113.452 36.4413 111.773 34.4332 108.105Z" fill="white"/>
<path d="M37.3167 94.0046C37.2463 92.9731 37.8397 91.83 38.8713 91.7595C39.7087 91.7604 40.443 92.6802 40.4929 93.8955C40.5427 95.1109 39.8676 96.1518 38.9383 96.1407C38.0906 96.2317 37.3665 95.22 37.3167 94.0046Z" fill="white"/>
<path d="M32.2897 96.5116C31.7288 95.7043 31.5974 94.3867 32.507 93.7443C33.4165 93.1018 34.5288 93.971 34.9977 94.768C35.4667 95.5651 35.7819 96.9032 34.7805 97.5354C33.8915 97.994 32.9322 97.4212 32.2897 96.5116Z" fill="white"/>
<path d="M29.8246 100.237C29.6821 99.849 29.7645 99.1138 30.2652 98.7977C30.6741 98.4714 31.338 98.3597 31.7769 98.595C32.0423 98.7178 32.2055 98.9223 32.3686 99.1267C32.5318 99.3311 32.5928 99.6171 32.5619 99.8928C32.531 100.168 32.5001 100.444 32.2853 100.699C32.1728 100.873 31.9787 100.944 31.8662 101.118C31.6721 101.189 31.478 101.26 31.2839 101.331C30.7325 101.27 29.9363 100.901 29.8246 100.237Z" fill="white"/>
<path d="M107.919 104.284C111.041 101.233 112.776 96.9257 112.642 92.5932C108.967 89.2749 103.493 88.942 99.5494 91.8578C95.6502 94.4999 92.7584 98.4311 91.2821 102.875C91.0083 102.83 90.6582 102.679 90.3844 102.634C90.9268 101.036 91.6518 99.4683 92.5593 97.93C94.2531 95.0211 96.5261 92.5816 99.3485 90.7942C103.339 88.1671 108.569 88.2727 112.515 91.0733C111.944 88.2624 110.295 85.7437 107.933 84.1394C101.534 79.7196 99.1155 84.1968 92.1873 95.6203C90.9016 97.7526 88.6356 105.246 76.0109 106.978C82.447 108.216 86.0524 107.923 88.1532 108.829C99.6927 113.902 101.584 110.932 107.919 104.284Z" fill="black"/>
<path d="M54.7232 107.226C59.6974 107.696 72.9854 108.11 86.3437 106.01" stroke="black" stroke-width="0.865397"/>
<path d="M113.183 110.231C118.106 104.195 118.203 96.1525 113.402 92.2752C108.601 88.3979 100.899 90.2306 95.9761 96.2661C91.0535 102.302 90.9564 110.344 95.7573 114.222C100.558 118.099 108.261 116.266 113.183 110.231Z" fill="black"/>
<path d="M107.163 110.371C110.103 107.291 110.363 102.835 107.786 100.259C105.209 97.6821 100.74 98.0758 97.8005 101.156C94.8605 104.236 94.6004 108.691 97.1776 111.268C99.7548 113.844 104.238 113.359 107.163 110.371Z" fill="white"/>
<path d="M108.199 96.016C108.545 95.042 108.283 93.7809 107.309 93.4342C106.502 93.2087 105.547 93.8957 105.17 95.0523C104.794 96.2089 105.162 97.3936 106.06 97.6341C106.851 97.951 107.822 97.1726 108.199 96.016Z" fill="white"/>
<path d="M112.361 99.7889C113.119 99.1632 113.602 97.9303 112.9 97.0659C112.198 96.2014 110.892 96.7375 110.225 97.3781C109.558 98.0187 108.893 99.2217 109.686 100.101C110.418 100.783 111.497 100.491 112.361 99.7889Z" fill="white"/>
<path d="M113.727 104.042C113.969 103.706 114.088 102.976 113.692 102.537C113.386 102.112 112.777 101.825 112.291 101.933C112.002 101.979 111.79 102.132 111.578 102.285C111.365 102.437 111.229 102.696 111.184 102.97C111.14 103.244 111.095 103.518 111.233 103.821C111.294 104.019 111.462 104.14 111.523 104.337C111.691 104.458 111.858 104.58 112.026 104.701C112.573 104.79 113.44 104.651 113.727 104.042Z" fill="white"/>
<path d="M104.747 91.5244C107.28 92.9258 110.011 93.4383 112.389 93.1156C114.766 92.7928 116.819 91.627 117.913 89.6477C119.008 87.6684 118.905 85.3101 117.915 83.1246C116.925 80.9393 115.04 78.8981 112.507 77.4967C109.974 76.0954 107.243 75.5829 104.865 75.9056C102.488 76.2283 100.435 77.3941 99.3404 79.3734C98.2455 81.3527 98.3487 83.7111 99.3385 85.8965C100.328 88.0819 102.214 90.1231 104.747 91.5244Z" fill="black" stroke="white" stroke-width="0.865397"/>
<path d="M28.1802 19.026C30.2477 17.1483 32.379 16.2648 34.7773 16.2648C37.1757 16.2648 40.3686 17.8302 41.9245 20.2517C42.8827 21.7431 43.2617 23.3417 43.5924 25.4477C44.0711 28.496 44.2693 29.6576 43.5924 33.1097C45.5048 38.0139 47.3033 38.3809 48.5085 38.6377C48.9126 41.0912 49.4794 43.4389 50.5559 45.6338C53.6771 50.4391 54.6303 52.4009 57.2082 54.2605C53.8054 57.1109 47.7698 67.4478 47.7698 67.4478L42.8846 63.5942C32.5192 55.2668 30.1163 43.649 26.8184 35.6995C24.0148 28.9413 24.6784 22.2062 28.1802 19.026Z" fill="black"/>
<path d="M35.1775 34.2569C37.6815 34.0861 39.5692 31.5883 39.4168 28.6312C39.2645 25.6741 37.0503 23.5547 34.5053 23.7161C31.9602 23.8776 30.1071 26.3803 30.2659 29.3418C30.4247 32.3033 32.6582 34.4361 35.1775 34.2569Z" fill="white"/>
<path d="M36.012 22.9902C36.3312 23.0636 36.6664 23.011 36.9477 22.8432C37.229 22.6755 37.4347 22.4055 37.5217 22.0898C37.8356 21.3659 37.6599 20.6055 37.137 20.3861C36.6141 20.1667 35.9471 20.5667 35.6272 21.2865C35.3074 22.0062 35.489 22.7708 36.012 22.9902Z" fill="white"/>
<path d="M33.2406 22.6725C33.5555 22.5737 33.8207 22.3582 33.9817 22.0702C34.1428 21.7821 34.1876 21.4434 34.1069 21.1234C34.1066 20.7957 33.9796 20.4808 33.7526 20.2445C33.5255 20.0083 33.216 19.8688 32.8886 19.8554C32.5726 19.9526 32.3063 20.1679 32.145 20.4564C31.9836 20.7449 31.9397 21.0844 32.0222 21.4045C32.0226 21.7322 32.1495 22.0471 32.3766 22.2833C32.6036 22.5196 32.9132 22.659 33.2406 22.6725Z" fill="white"/>
<path d="M30.9558 23.7827C31.1517 23.6959 31.3164 23.5514 31.4279 23.3684C31.5394 23.1854 31.5923 22.9727 31.5796 22.7588C31.5668 22.545 31.4891 22.3401 31.3567 22.1716C31.2242 22.0032 31.0435 21.8792 30.8387 21.8162C30.6339 21.7533 30.4148 21.7545 30.2106 21.8196C30.0065 21.8847 29.8271 22.0106 29.6965 22.1804C29.5659 22.3503 29.4903 22.556 29.4798 22.77C29.4694 22.984 29.5245 23.1961 29.638 23.3779C29.6975 23.4913 29.779 23.5919 29.8776 23.6737C29.9762 23.7556 30.0901 23.8171 30.2126 23.8547C30.3351 23.8923 30.4638 23.9053 30.5914 23.893C30.7189 23.8806 30.8428 23.8431 30.9558 23.7827Z" fill="white"/>
</svg>
